<?xml version="1.0" standalone="no"?>
<!DOCTYPE svg PUBLIC "-//W3C//DTD SVG 20010904//EN"
 "http://www.w3.org/TR/2001/REC-SVG-20010904/DTD/svg10.dtd">
<svg version="1.0" xmlns="http://www.w3.org/2000/svg"
 width="737.000000pt" height="968.000000pt" viewBox="0 0 737.000000 968.000000"
 preserveAspectRatio="xMidYMid meet">

<g transform="translate(0.000000,968.000000) scale(0.100000,-0.100000)"
fill="#000000" stroke="none">
<path d="M3085 8383 c-12 -2 -34 -15 -50 -28 -16 -14 -41 -25 -57 -25 -36 0
-106 -31 -147 -66 -30 -25 -80 -99 -85 -126 -2 -7 -6 -20 -9 -28 -13 -29 -15
-88 -16 -507 l-1 -421 -307 -4 -308 -4 -84 -32 c-131 -50 -329 -171 -315 -193
3 -5 0 -8 -6 -7 -16 4 -72 -65 -76 -94 -2 -13 -6 -36 -10 -53 -4 -23 -3 -26 5
-15 9 13 11 13 11 -1 0 -8 -5 -20 -10 -25 -13 -13 -12 325 -11 -2599 0 -1392
-2 -2548 -5 -2570 -4 -26 -2 -35 4 -27 6 9 9 -1 8 -31 -2 -81 91 -191 182
-217 20 -5 67 -13 105 -16 l67 -7 0 -122 c0 -109 2 -125 21 -149 16 -20 29
-26 58 -26 40 0 63 18 75 58 11 33 42 28 50 -8 8 -43 61 -68 102 -49 45 22 54
52 54 181 l0 116 398 -5 c218 -3 762 -8 1207 -12 l810 -6 3 -120 c2 -108 4
-122 23 -137 32 -27 83 -23 108 8 12 15 21 33 21 40 0 29 36 14 48 -19 12 -33
46 -57 78 -57 9 0 29 13 45 29 29 29 29 31 29 145 l0 116 43 0 c42 0 157 46
172 69 3 7 39 33 78 59 88 57 203 170 243 237 l29 50 5 764 5 764 40 14 c21 7
42 17 45 21 3 4 26 20 51 34 143 83 263 251 326 455 25 81 27 101 27 268 0
168 -2 186 -27 268 -69 224 -196 390 -361 470 -39 20 -79 38 -88 41 -17 5 -18
66 -18 1084 0 1192 4 1124 -64 1206 -19 24 -59 55 -92 71 l-59 30 -462 3 -462
3 -3 467 -3 467 -28 57 c-41 83 -142 158 -212 158 -12 0 -29 7 -36 17 -35 42
-53 43 -611 42 -293 -1 -542 -4 -553 -6z m835 -76 c74 -18 77 -40 10 -55 -193
-45 -742 -32 -794 19 -16 15 59 39 152 49 124 13 564 4 632 -13z m-964 -65
c30 -20 21 -42 -46 -118 l-68 -78 -6 -91 c-3 -49 -11 -190 -17 -313 -7 -122
-13 -221 -15 -220 -1 2 -8 140 -15 308 l-12 305 32 65 c31 65 73 118 107 139
23 13 26 13 40 3z m681 -162 c431 0 550 3 576 13 37 16 53 13 85 -16 l22 -20
0 -375 0 -374 -42 42 c-88 89 -227 160 -395 202 -77 20 -113 23 -293 22 -190
0 -212 -2 -305 -27 -104 -28 -247 -91 -302 -133 -17 -13 -36 -24 -42 -24 -8 0
-11 102 -11 326 0 311 1 327 20 354 24 34 61 41 109 23 26 -10 156 -13 578
-13z m-830 -712 c-3 -7 -5 -2 -5 12 0 14 2 19 5 13 2 -7 2 -19 0 -25z m1033 2
c104 -30 202 -84 252 -139 l43 -46 -534 -3 c-294 -1 -536 0 -539 2 -10 11 43
68 98 104 63 42 177 85 270 101 95 17 324 6 410 -19z m-75 -530 c505 -16 688
-25 718 -38 16 -7 41 -11 55 -11 15 1 44 -5 66 -14 21 -10 46 -17 56 -17 9 0
25 -9 35 -20 10 -12 38 -29 62 -40 24 -10 43 -26 43 -34 0 -9 9 -21 20 -28 17
-11 20 -24 20 -84 0 -56 -4 -77 -20 -97 -11 -14 -20 -30 -20 -35 0 -6 -9 -14
-20 -17 -11 -3 -20 -11 -20 -16 0 -5 -5 -9 -12 -9 -7 0 -28 -16 -48 -35 -20
-20 -46 -37 -57 -40 -12 -2 -39 -12 -60 -23 -60 -31 -117 -56 -125 -54 -5 1
-8 -3 -8 -9 0 -6 -7 -9 -15 -5 -8 3 -15 1 -15 -5 0 -6 -5 -7 -10 -4 -6 4 -17
1 -25 -5 -12 -10 -15 -10 -16 1 0 8 -4 4 -9 -8 -5 -12 -20 -25 -34 -29 -25 -6
-40 -29 -30 -45 3 -5 10 -6 16 -3 6 4 9 3 5 -2 -3 -5 14 -33 38 -62 24 -29 47
-61 50 -72 4 -11 11 -20 17 -20 5 0 8 -7 4 -15 -3 -8 -1 -15 4 -15 6 0 10 -10
10 -23 0 -13 4 -27 9 -32 28 -29 48 -312 29 -420 -9 -56 -58 -204 -69 -211 -5
-3 -9 -13 -9 -23 0 -9 -16 -32 -35 -51 -26 -25 -32 -36 -22 -42 8 -6 6 -8 -8
-6 -13 2 -19 -2 -18 -12 1 -9 -14 -23 -37 -33 -23 -11 -37 -23 -34 -29 4 -6 3
-8 -3 -5 -6 4 -27 -3 -49 -13 -21 -11 -47 -17 -57 -14 -12 4 -17 2 -13 -4 7
-11 -50 -10 -114 2 -19 4 -43 8 -53 10 -10 1 -22 7 -25 12 -4 5 -12 9 -18 9
-7 0 -38 25 -70 56 -68 65 -84 84 -84 99 0 5 -7 10 -16 10 -8 0 -12 4 -9 10 5
9 -10 49 -24 60 -13 11 -31 51 -31 70 0 12 -8 35 -17 53 -15 27 -18 63 -19
220 0 104 3 182 7 175 6 -9 9 -4 9 15 0 16 5 38 11 50 7 12 12 34 11 49 0 16
4 26 9 23 5 -4 9 1 9 9 0 9 5 16 10 16 6 0 10 9 10 20 0 11 4 20 10 20 5 0 6
7 3 17 -4 10 -2 14 5 9 6 -3 14 3 18 16 4 13 12 26 18 31 6 4 -2 7 -19 7 -16
-1 -46 1 -65 4 -19 2 -92 6 -162 8 -69 1 -124 6 -121 11 2 4 -5 7 -16 7 -12 0
-21 -2 -21 -4 0 -1 11 -48 25 -104 29 -116 31 -183 11 -298 -8 -45 -13 -92
-10 -105 4 -22 4 -22 -5 -4 -9 20 -10 20 -10 -1 -1 -12 -7 -37 -15 -55 -7 -19
-11 -41 -8 -49 2 -8 1 -12 -3 -8 -5 5 -21 -17 -36 -47 -15 -30 -44 -75 -64
-100 -21 -25 -34 -45 -29 -45 5 0 -3 -8 -16 -17 -48 -34 -69 -56 -63 -67 3 -6
3 -8 -2 -4 -4 4 -14 3 -21 -3 -21 -17 -85 -49 -132 -65 -45 -16 -192 -16 -192
-1 0 5 -10 5 -21 2 -13 -5 -19 -3 -15 3 5 9 -15 23 -36 26 -3 1 -17 10 -30 21
-13 11 -30 20 -38 20 -8 0 -15 7 -15 16 0 9 -13 32 -28 50 -15 18 -27 38 -27
43 0 6 -7 24 -15 40 -9 16 -13 31 -10 34 3 3 -1 12 -8 20 -6 8 -17 58 -22 111
l-11 96 -24 -29 c-14 -15 -42 -47 -62 -71 -21 -23 -38 -47 -38 -54 0 -6 -7
-11 -15 -11 -9 0 -19 -8 -22 -17 -7 -17 -51 -70 -81 -96 -7 -7 -32 -30 -55
-52 -72 -69 -188 -125 -258 -125 -40 0 -57 6 -85 28 -18 15 -34 32 -34 38 0 6
-9 19 -20 29 -11 10 -20 24 -20 32 0 7 -4 21 -9 31 -14 28 -32 84 -40 122 -4
19 -13 46 -21 60 -10 19 -12 86 -8 322 5 255 8 302 22 323 10 15 17 44 16 68
-1 54 23 160 54 231 9 21 16 48 16 61 0 12 9 30 20 40 11 10 20 28 20 40 0 30
161 191 198 198 15 3 41 9 57 12 17 3 46 10 65 16 19 5 109 14 200 20 91 6
208 13 260 17 118 9 678 5 1105 -8z m1612 -572 c-3 -8 -6 -5 -6 6 -1 11 2 17
5 13 3 -3 4 -12 1 -19z m-10 -600 c-2 -13 -4 -5 -4 17 -1 22 1 32 4 23 2 -10
2 -28 0 -40z m0 -295 c-3 -10 -5 -2 -5 17 0 19 2 27 5 18 2 -10 2 -26 0 -35z
m-2587 -498 c11 -13 10 -14 -4 -9 -9 3 -16 10 -16 15 0 13 6 11 20 -6z m50
-45 c0 -5 -2 -10 -4 -10 -3 0 -8 5 -11 10 -3 6 -1 10 4 10 6 0 11 -4 11 -10z
m-20 -80 c6 -11 7 -20 2 -20 -6 0 -12 9 -15 20 -3 11 -3 20 -1 20 2 0 8 -9 14
-20z m1365 0 c3 -5 1 -10 -4 -10 -6 0 -11 5 -11 10 0 6 2 10 4 10 3 0 8 -4 11
-10z m-45 -30 c0 -5 -8 -10 -17 -10 -15 0 -16 2 -3 10 19 12 20 12 20 0z
m-1096 -8 c3 -5 -1 -9 -9 -9 -8 0 -15 4 -15 9 0 4 4 8 9 8 6 0 12 -4 15 -8z
m33 -52 c152 -54 333 -82 533 -82 142 0 193 4 270 21 52 12 95 21 96 21 12 0
-17 -51 -52 -89 -107 -119 -312 -156 -590 -106 -170 30 -293 101 -329 189 -20
48 -27 76 -20 76 4 0 45 -14 92 -30z m938 10 c-3 -5 -12 -10 -18 -10 -7 0 -6
4 3 10 19 12 23 12 15 0z m-625 -52 c-32 -12 -51 -3 -20 10 14 5 29 7 34 4 5
-3 -1 -9 -14 -14z m495 11 c18 -8 17 -9 -4 -5 -14 3 -31 0 -38 -5 -7 -6 -18
-9 -25 -6 -8 4 -7 6 5 6 9 1 17 6 17 11 0 12 18 12 45 -1z m-1018 -31 c-3 -7
-5 -2 -5 12 0 14 2 19 5 13 2 -7 2 -19 0 -25z m680 -4 c-3 -3 -12 -4 -19 -1
-8 3 -5 6 6 6 11 1 17 -2 13 -5z m146 -1 c-7 -2 -19 -2 -25 0 -7 3 -2 5 12 5
14 0 19 -2 13 -5z m2076 -130 c184 -185 226 -525 96 -784 -39 -76 -140 -189
-169 -189 -14 0 -16 52 -16 515 0 463 2 515 16 515 8 0 41 -26 73 -57z m-1642
-135 c-3 -8 -6 -5 -6 6 -1 11 2 17 5 13 3 -3 4 -12 1 -19z m-1177 -58 c0 -5
-4 -10 -10 -10 -5 0 -10 5 -10 10 0 6 5 10 10 10 6 0 10 -4 10 -10z m1127 -62
c-3 -8 -6 -5 -6 6 -1 11 2 17 5 13 3 -3 4 -12 1 -19z m-726 -119 c19 -10 19
-10 -1 -39 -11 -15 -20 -33 -20 -39 0 -21 41 -11 65 15 13 14 29 23 34 19 6
-3 11 -1 11 4 0 7 25 11 62 11 48 0 75 -6 115 -27 76 -38 66 -57 -17 -33 -39
12 -173 2 -164 -11 5 -9 -30 -14 -81 -11 -51 4 -56 8 -43 37 9 21 8 28 -8 46
-16 18 -27 20 -69 16 l-50 -6 40 14 c49 17 100 18 126 4z m579 -93 c0 -2 -8
-10 -17 -17 -16 -13 -17 -12 -4 4 13 16 21 21 21 13z m-730 -56 c12 -8 9 -10
-13 -10 -16 0 -26 4 -22 10 8 12 16 12 35 0z m676 1 c-6 -9 -46 -22 -46 -15 0
3 10 9 23 14 29 11 29 11 23 1z m-599 -50 c-1 -16 -5 -17 -24 -8 -30 13 -29
27 1 27 18 0 24 -5 23 -19z m523 12 c-8 -3 -18 -11 -22 -17 -4 -6 -10 -7 -15
-3 -9 10 16 27 37 26 13 -1 13 -1 0 -6z m-474 -26 c4 -4 0 -7 -9 -7 -9 0 -18
4 -21 9 -7 10 20 9 30 -2z m11 -23 c-3 -3 -12 -4 -19 -1 -8 3 -5 6 6 6 11 1
17 -2 13 -5z m293 2 c0 -2 -13 -6 -29 -8 -17 -2 -28 -1 -25 4 5 8 54 12 54 4z
m37 -2 c-3 -3 -12 -4 -19 -1 -8 3 -5 6 6 6 11 1 17 -2 13 -5z m-272 -22 c-3
-3 -11 0 -18 7 -9 10 -8 11 6 5 10 -3 15 -9 12 -12z m1952 -379 c-3 -10 -5 -2
-5 17 0 19 2 27 5 18 2 -10 2 -26 0 -35z m-1312 -62 c102 -27 249 -98 300
-143 127 -113 151 -138 185 -183 58 -79 118 -195 147 -286 l27 -84 3 -676 4
-677 -658 -6 c-362 -3 -891 -9 -1175 -12 l-518 -6 0 629 c0 346 5 662 10 703
26 198 138 407 292 543 29 26 62 56 74 67 12 11 24 20 28 20 4 0 14 7 23 15 8
9 28 19 44 22 16 3 29 9 29 13 0 4 15 13 33 20 17 6 39 15 47 19 14 7 53 17
160 40 26 5 221 8 455 7 384 -3 415 -4 490 -25z m1302 -1833 c-3 -8 -6 -5 -6
6 -1 11 2 17 5 13 3 -3 4 -12 1 -19z m-3687 -53 c0 -8 -2 -15 -4 -15 -2 0 -6
7 -10 15 -3 8 -1 15 4 15 6 0 10 -7 10 -15z"/>
<path d="M2999 6565 c-3 -2 -19 -5 -37 -7 -18 -1 -32 -6 -32 -10 0 -4 -6 -8
-14 -8 -8 0 -31 -15 -52 -34 -21 -19 -43 -32 -48 -29 -5 4 -6 1 -2 -5 3 -6 -3
-27 -15 -47 -16 -27 -24 -33 -30 -23 -5 7 -6 -4 -2 -27 3 -22 8 -42 10 -45 2
-2 22 15 44 38 23 23 45 39 51 36 6 -4 8 -2 5 3 -9 15 57 45 111 51 31 3 47 1
53 -9 6 -10 9 -10 9 -1 0 18 17 15 74 -12 29 -14 58 -36 65 -50 8 -14 18 -23
23 -20 4 3 8 -1 8 -9 0 -8 8 -18 17 -21 12 -5 14 -9 5 -18 -9 -9 -15 -7 -27 8
-8 10 -14 15 -14 9 0 -19 27 -46 43 -43 8 2 21 -6 29 -16 9 -12 20 -17 31 -13
18 7 15 35 -13 97 -8 19 -15 44 -16 55 0 11 -4 20 -10 20 -13 1 -105 95 -105
108 0 6 -3 8 -6 4 -3 -3 -24 1 -46 9 -39 14 -100 19 -109 9z"/>
<path d="M4003 6508 c4 -12 -5 -22 -33 -37 -21 -11 -41 -17 -45 -13 -4 4 -5 2
-3 -4 3 -13 -84 -94 -100 -94 -6 0 -14 -5 -18 -12 -5 -7 -3 -8 7 -3 11 7 11 5
-1 -11 -8 -10 -22 -27 -32 -37 -10 -10 -18 -27 -18 -37 0 -29 38 -25 70 8 48
47 73 62 95 56 13 -3 16 -2 8 3 -10 7 -8 13 6 25 23 19 133 58 166 58 30 0
105 -29 105 -41 0 -5 6 -6 14 -3 18 7 149 -124 139 -139 -3 -6 -1 -7 5 -3 7 4
12 3 12 -2 0 -11 39 -4 41 7 5 42 3 62 -12 110 -9 31 -15 70 -13 86 2 17 1 22
-2 13 -8 -25 -16 -23 -49 12 -48 51 -104 70 -200 70 -51 0 -93 -5 -105 -12
-17 -11 -22 -10 -31 2 -9 13 -10 13 -6 -2z"/>
<path d="M3085 6410 c-4 -6 7 -10 25 -10 18 0 29 4 25 10 -3 6 -15 10 -25 10
-10 0 -22 -4 -25 -10z"/>
<path d="M3345 6347 c-4 -10 -5 -21 -1 -24 10 -10 18 4 13 24 -4 17 -4 17 -12
0z"/>
<path d="M4240 6336 c0 -2 7 -7 16 -10 8 -3 12 -2 9 4 -6 10 -25 14 -25 6z"/>
<path d="M4425 6331 c-3 -5 -1 -12 5 -16 5 -3 10 1 10 9 0 18 -6 21 -15 7z"/>
<path d="M3058 6313 c7 -3 16 -2 19 1 4 3 -2 6 -13 5 -11 0 -14 -3 -6 -6z"/>
<path d="M2945 6278 c-65 -24 -159 -93 -212 -157 -62 -75 -133 -215 -158 -311
-20 -75 -31 -270 -19 -318 6 -22 9 10 9 105 1 162 20 246 88 383 54 109 165
226 253 267 51 24 72 28 149 28 80 0 95 -3 137 -28 59 -34 109 -95 147 -178
17 -35 30 -58 31 -50 1 29 -62 141 -104 183 -65 66 -119 88 -213 87 -43 0 -91
-5 -108 -11z"/>
<path d="M3978 6223 c6 -2 18 -2 25 0 6 3 1 5 -13 5 -14 0 -19 -2 -12 -5z"/>
<path d="M4108 6223 c7 -3 16 -2 19 1 4 3 -2 6 -13 5 -11 0 -14 -3 -6 -6z"/>
<path d="M3923 6170 c-76 -38 -140 -107 -188 -204 -56 -113 -75 -200 -74 -346
1 -69 4 -136 8 -150 4 -14 5 34 3 106 -8 234 43 391 167 515 76 76 129 99 225
99 137 0 265 -105 335 -274 41 -99 53 -156 61 -301 l6 -120 2 110 c4 265 -111
494 -289 575 -71 32 -178 27 -256 -10z"/>
<path d="M2955 5987 c-56 -27 -79 -50 -124 -122 -53 -85 -73 -170 -69 -300 3
-101 6 -117 33 -170 17 -32 47 -72 68 -89 34 -27 46 -31 101 -31 66 0 101 17
160 80 38 39 86 141 102 219 15 67 16 167 4 206 -7 21 -8 19 -9 -17 -1 -57
-36 -99 -74 -89 -64 16 -112 162 -73 221 25 37 68 34 100 -8 14 -18 29 -44 35
-57 8 -21 10 -22 10 -5 1 34 -57 124 -98 151 -57 37 -105 40 -166 11z"/>
<path d="M3371 5987 c-1 -10 4 -49 10 -87 9 -54 9 -91 -1 -162 -37 -272 -184
-493 -379 -569 -25 -10 -38 -18 -28 -19 10 0 46 14 80 31 94 48 193 154 250
271 73 149 90 220 90 373 0 72 -5 141 -11 155 -8 19 -11 21 -11 7z"/>
<path d="M3903 5909 c-49 -24 -88 -72 -116 -143 -28 -71 -30 -247 -3 -326 72
-211 210 -302 338 -221 156 99 158 459 3 629 -41 46 -107 82 -151 82 -16 0
-48 -9 -71 -21z m220 -82 c50 -50 76 -121 58 -156 -17 -32 -47 -44 -73 -30
-86 44 -137 161 -91 211 27 30 60 22 106 -25z"/>
<path d="M4446 5451 c-4 -24 -5 -46 -2 -48 7 -7 19 63 14 79 -3 7 -8 -7 -12
-31z"/>
<path d="M2571 5435 c0 -11 4 -27 9 -35 9 -13 10 -13 9 0 0 8 -4 24 -9 35 l-9
20 0 -20z"/>
<path d="M3681 5425 c0 -11 4 -29 9 -40 l9 -20 0 20 c0 11 -4 29 -9 40 l-9 20
0 -20z"/>
<path d="M4420 5355 c-24 -74 -71 -157 -118 -207 -66 -70 -129 -100 -227 -108
l-80 -7 72 -1 c120 -3 213 51 292 169 41 61 85 163 78 183 -2 6 -10 -7 -17
-29z"/>
<path d="M2590 5377 c0 -22 56 -114 93 -151 59 -59 108 -79 197 -82 l75 -3
-70 8 c-120 12 -202 69 -264 181 -17 30 -31 51 -31 47z"/>
<path d="M3700 5355 c0 -19 68 -142 102 -186 43 -53 148 -129 177 -129 9 1 -9
14 -39 29 -76 39 -153 124 -197 216 -31 67 -43 86 -43 70z"/>
<path d="M2650 5220 c0 -5 5 -10 11 -10 5 0 7 5 4 10 -3 6 -8 10 -11 10 -2 0
-4 -4 -4 -10z"/>
</g>
</svg>
